<svg xmlns="http://www.w3.org/2000/svg" width="30" height="30" fill="none"><path id="Vector" fill="#F3F6F9" fill-opacity="1" fill-rule="nonzero" d="M14.06 29.45c-.36-.36-.54-.82-.56-1.39q-.03-.84.51-1.38l9.44-9.7H1.92c-.54 0-1-.19-1.37-.58-.37-.38-.56-.85-.55-1.4 0-.57.18-1.04.55-1.42s.83-.57 1.37-.57h21.53l-9.44-9.7c-.36-.36-.52-.82-.51-1.38.02-.57.2-1.03.56-1.39.35-.36.8-.54 1.34-.54q.825 0 1.35.54l12.72 13.07c.19.16.32.37.41.62.08.25.12.5.11.77 0 .26-.03.51-.11.74s-.22.44-.41.64L16.75 29.45c-.35.36-.8.55-1.35.55-.54 0-.99-.19-1.34-.55"/></svg>