<svg xmlns="http://www.w3.org/2000/svg" width="23" height="23" fill="none"><g opacity=".3"><path id="Vector" fill="#F3F6F9" fill-opacity="1" fill-rule="nonzero" d="M22.35 3.74 14.6 11.5l7.75 7.75c.41.41.65.97.65 1.55s-.24 1.14-.65 1.55-.97.65-1.55.65-1.14-.24-1.55-.65L11.5 14.6l-7.76 7.75c-.41.41-.97.65-1.55.65A2.205 2.205 0 0 1 0 20.8c0-.58.23-1.14.64-1.55l7.75-7.75L.64 3.74a2.195 2.195 0 0 1 0-3.1 2.195 2.195 0 0 1 3.1 0l7.76 7.75L19.25.64a2.195 2.195 0 0 1 3.1 0c.41.41.65.97.65 1.55s-.24 1.14-.65 1.55"/></g></svg>